<?xml version="1.0" encoding="UTF-8" standalone="no"?>
<!-- Created with Inkscape (http://www.inkscape.org/) -->

<svg
   xmlns:dc="http://purl.org/dc/elements/1.1/"
   xmlns:cc="http://creativecommons.org/ns#"
   xmlns:rdf="http://www.w3.org/1999/02/22-rdf-syntax-ns#"
   xmlns:svg="http://www.w3.org/2000/svg"
   xmlns="http://www.w3.org/2000/svg"
   xmlns:sodipodi="http://sodipodi.sourceforge.net/DTD/sodipodi-0.dtd"
   xmlns:inkscape="http://www.inkscape.org/namespaces/inkscape"
   width="300"
   height="300"
   viewBox="0 0 299.99999 299.99999"
   id="svg2"
   version="1.1"
   inkscape:version="0.91 r13725"
   sodipodi:docname="alacrity.svg">
  <defs
     id="defs4" />
  <sodipodi:namedview
     id="base"
     pagecolor="#ffffff"
     bordercolor="#666666"
     borderopacity="1.0"
     inkscape:pageopacity="0.0"
     inkscape:pageshadow="2"
     inkscape:zoom="1.3919725"
     inkscape:cx="174.28571"
     inkscape:cy="206.2086"
     inkscape:document-units="px"
     inkscape:current-layer="layer1"
     showgrid="false"
     inkscape:window-width="1918"
     inkscape:window-height="1059"
     inkscape:window-x="0"
     inkscape:window-y="19"
     inkscape:window-maximized="1"
     units="px"
     showborder="true" />
  <metadata
     id="metadata7">
    <rdf:RDF>
      <cc:Work
         rdf:about="">
        <dc:format>image/svg+xml</dc:format>
        <dc:type
           rdf:resource="http://purl.org/dc/dcmitype/StillImage" />
        <dc:title></dc:title>
      </cc:Work>
    </rdf:RDF>
  </metadata>
  <g
     inkscape:label="Layer 1"
     inkscape:groupmode="layer"
     id="layer1"
     transform="translate(0,-752.36223)">
    <path
       style="opacity:1;fill:#4d4d4d;fill-opacity:1;stroke:none;stroke-width:4;stroke-miterlimit:4;stroke-dasharray:none;stroke-dashoffset:0"
       d="m 170.00769,781.07826 -41.83008,64.9043 -60.302731,-48.22657 16.31445,75.47266 -76.742191,8.53906 64.904301,41.83008 -48.22656,60.30469 75.472651,-16.31641 8.53906,76.74223 41.83204,-64.90238 60.30273,48.22458 -16.31445,-75.47068 76.74023,-8.54101 -64.90234,-41.83008 48.22461,-60.30274 -75.47071,16.31446 -8.54101,-76.74219 z m -30.93555,96.58984 a 35.036789,35.036789 0 0 1 35.03711,35.03516 35.036789,35.036789 0 0 1 -35.03711,35.03711 35.036789,35.036789 0 0 1 -35.03711,-35.03711 35.036789,35.036789 0 0 1 35.03711,-35.03516 z"
       id="path4136"
       inkscape:connector-curvature="0" />
    <path
       style="opacity:1;fill:#b3b3b3;fill-opacity:1;stroke:#666666;stroke-width:5;stroke-miterlimit:4;stroke-dasharray:none;stroke-dashoffset:0"
       d="M 186.01758 19.625 L 144.1875 84.529297 L 83.884766 36.302734 L 100.19922 111.77539 L 23.457031 120.31445 L 88.361328 162.14648 L 40.134766 222.44922 L 115.60742 206.13477 L 124.14648 282.875 L 165.97656 217.97266 L 226.28125 266.19727 L 209.9668 190.72656 L 286.70703 182.18555 L 221.80469 140.35547 L 270.0293 80.052734 L 194.55859 96.367188 L 186.01758 19.625 z M 155.08203 116.21484 A 35.036789 35.036789 0 0 1 190.11914 151.25 A 35.036789 35.036789 0 0 1 155.08203 186.28711 A 35.036789 35.036789 0 0 1 120.04492 151.25 A 35.036789 35.036789 0 0 1 155.08203 116.21484 z "
       transform="translate(0,752.36223)"
       id="path4138" />
  </g>
</svg>
